<svg xmlns="http://www.w3.org/2000/svg" width="32" height="32"><path d="M2 14c0 8 3.932 11.084 10 12 4.47.675 8-14 16-4" style="fill:none;stroke:#00a500;stroke-width:2;stroke-linecap:butt;stroke-linejoin:miter;stroke-dasharray:none;stroke-opacity:1"/><circle cx="12" cy="26" r="4" style="fill:#29a9b9;fill-opacity:1;stroke:#e8f8b8;stroke-width:1;stroke-linejoin:miter;stroke-dasharray:none;stroke-dashoffset:0;stroke-opacity:1;paint-order:normal"/><circle cx="24" cy="8" r="4" style="fill:none;fill-opacity:1;stroke:#29a9b9;stroke-width:1;stroke-linejoin:miter;stroke-dasharray:2,1;stroke-dashoffset:0;stroke-opacity:1;paint-order:normal"/><path d="M17.02-.805a2 2 0 0 1 .993-1.741 2 2 0 0 1 2.004-.007 2 2 0 0 1 1.004 1.734" style="fill:none;fill-opacity:1;stroke:#e248e5;stroke-width:1;stroke-linejoin:miter;stroke-dasharray:none;stroke-dashoffset:0;stroke-opacity:1;paint-order:normal" transform="rotate(40.208)"/><path d="M17.02-1.168a2 2 0 0 1 .59-1.431 2 2 0 0 1 1.435-.582" style="fill:none;fill-opacity:1;stroke:#e248e5;stroke-width:1;stroke-linejoin:miter;stroke-dasharray:none;stroke-dashoffset:0;stroke-opacity:1;paint-order:normal" transform="scale(1 -1) rotate(-40.208)"/><path d="m13.527 10.363-1.29 1.527" style="fill:none;stroke:#e248e5;stroke-width:1px;stroke-linecap:butt;stroke-linejoin:miter;stroke-opacity:1"/><path d="M-21.02-5.168a2 2 0 0 1 .991-1.741 2 2 0 0 1 2.004-.007A2 2 0 0 1-17.02-5.18" style="fill:none;fill-opacity:1;stroke:#e248e5;stroke-width:1;stroke-linejoin:miter;stroke-dasharray:none;stroke-dashoffset:0;stroke-opacity:1;paint-order:normal" transform="rotate(-139.792)"/><path d="M-21.02 3.195a2 2 0 0 1 .589-1.431 2 2 0 0 1 1.434-.582" style="fill:none;fill-opacity:1;stroke:#e248e5;stroke-width:1;stroke-linejoin:miter;stroke-dasharray:none;stroke-dashoffset:0;stroke-opacity:1;paint-order:normal" transform="scale(-1 1) rotate(-40.208)"/><path d="M12.709 17.527 14 16" style="fill:none;stroke:#e248e5;stroke-width:1px;stroke-linecap:butt;stroke-linejoin:miter;stroke-opacity:1"/></svg>