<svg xmlns="http://www.w3.org/2000/svg" width="32" height="32"><path d="M174.33 4.87q-.382-.958-.163-.958l1.011.438q2.407.629 1.97 2.16-.411.957.41.738 2.46-.629 4.921-.574 1.258.11 2.188.574 1.996 1.258.71 2.516-1.203.684-3.828 1.148-1.011.22-.246-.601l.766-.656q1.04-.957 1.313-1.45.027-.164-.848-.355-6.399.246-11.485 2.926-1.695 1.011-2.925 2.597-.985 1.176-1.832-.574-.875-1.476.875-2.844 1.285-1.422 2.023-2.625.164-.054.274.383.082.766-.465 2.106-.082.656.847.191 2.489-1.285 5.114-2.105.601-.137.41-1.04-.028-.902-1.04-1.996zm2.407 7.218q1.941-1.176 2.789.738.52 1.122-1.039 2.051-1.313.793-2.652 1.778-.657.601-.383.574.765.246 1.64 1.613.438.738 1.012.492 2.106-.847 3.883-.601 1.312.246 1.75 1.257-.11.465-.547.493-.766.191-2.187.957-1.04.437-.985.191.082-.191.301-.465.793-.738-.164-.738-.738.082-1.477.246-.656.191-.437 1.04.437 1.995-.41 4.21-1.23 2.899-4.102 1.75-1.558-.766-2.242-1.832-.11-.273-.027-.41.164-.055.984.683 2.406 1.75 3.61-.628.574-1.45.519-3.528-.082-.656-.902-.41-2.243.82-4.457 2.324-.137 0-.192-.136.192-.438 1.067-1.176 1.914-1.45 3.636-2.215.63-.273.356-1.121-.656-1.23-1.313-1.258-.136.027-.437.3-.274.329-.63.028-.355-.902.849-1.586.984-.984 1.859-1.996.492-.793.355-.848-1.285.493-2.351.657-1.531.328-2.516-.219-.328-.273-.328-.438.137-.3.629-.136 1.777.054 4.539-1.64z" style="fill:#afafaf;stroke:#3f3f3f;stroke-opacity:1" transform="translate(-160)"/></svg>