<svg xmlns="http://www.w3.org/2000/svg" width="32" height="32"><path d="M2 14c0 8 3.932 11.084 10 12 4.47.675 8-14 16-4" style="fill:none;stroke:#00a500;stroke-width:2;stroke-linecap:butt;stroke-linejoin:miter;stroke-dasharray:none;stroke-opacity:1"/><circle cx="24" cy="8" r="4" style="fill:#29a9b9;fill-opacity:1;stroke:#e8f8b8;stroke-width:1;stroke-linejoin:miter;stroke-dasharray:none;stroke-dashoffset:0;stroke-opacity:1;paint-order:normal"/><path d="M19.494-.442a2 2 0 0 1 .992-1.741 2 2 0 0 1 2.004-.007 2 2 0 0 1 1.004 1.734" style="fill:none;fill-opacity:1;stroke:#e248e5;stroke-width:1;stroke-linejoin:miter;stroke-dasharray:none;stroke-dashoffset:0;stroke-opacity:1;paint-order:normal" transform="rotate(40.208)"/><path d="M19.494-1.531a2 2 0 0 1 .589-1.431 2 2 0 0 1 1.434-.582" style="fill:none;fill-opacity:1;stroke:#e248e5;stroke-width:1;stroke-linejoin:miter;stroke-dasharray:none;stroke-dashoffset:0;stroke-opacity:1;paint-order:normal" transform="scale(1 -1) rotate(-40.208)"/><path d="m15.181 12.236-1.29 1.528" style="fill:none;stroke:#e248e5;stroke-width:1px;stroke-linecap:butt;stroke-linejoin:miter;stroke-opacity:1"/><path d="M-23.493-5.531a2 2 0 0 1 .992-1.741 2 2 0 0 1 2.004-.007 2 2 0 0 1 1.003 1.735" style="fill:none;fill-opacity:1;stroke:#e248e5;stroke-width:1;stroke-linejoin:miter;stroke-dasharray:none;stroke-dashoffset:0;stroke-opacity:1;paint-order:normal" transform="rotate(-139.792)"/><path d="M-23.493 3.558a2 2 0 0 1 .589-1.432 2 2 0 0 1 1.434-.581" style="fill:none;fill-opacity:1;stroke:#e248e5;stroke-width:1;stroke-linejoin:miter;stroke-dasharray:none;stroke-dashoffset:0;stroke-opacity:1;paint-order:normal" transform="scale(-1 1) rotate(-40.208)"/><path d="m14.363 19.4 1.291-1.527" style="fill:none;stroke:#e248e5;stroke-width:1px;stroke-linecap:butt;stroke-linejoin:miter;stroke-opacity:1"/><path d="m5.654 9.873 8 8M13.654 9.873l-8 8" style="fill:none;stroke:red;stroke-width:2;stroke-linecap:butt;stroke-linejoin:miter;stroke-dasharray:none;stroke-opacity:1"/></svg>