<svg xmlns="http://www.w3.org/2000/svg" width="32" height="32" viewBox="-3.75 -4 32 32"><path d="M0-4h18v4H0z" style="fill:#f90;fill-opacity:1;stroke:none;stroke-width:.866023;stroke-linecap:butt;stroke-linejoin:miter;stroke-opacity:1" transform="scale(1 -1)"/><path d="M0-14h18v8H0zM0-24h18v8H0z" style="fill:#f90;fill-opacity:1;stroke:none;stroke-width:1.22474;stroke-linecap:butt;stroke-linejoin:miter;stroke-opacity:1" transform="scale(1 -1)"/><path d="m20.223 9.553-.446.894S23.5 12.333 23.5 16s-3.723 5.553-3.723 5.553l.446.894S24.5 20.333 24.5 16s-4.277-6.447-4.277-6.447z" style="color:#000;fill:#f0f;-inkscape-stroke:none" transform="matrix(1 0 0 -1 0 30.52)"/><path d="m23.643 8.072-4.498 1.5 1.5 4.498.947-.314-1.184-3.55L23.96 9.02z" style="color:#000;fill:#f0f;-inkscape-stroke:none" transform="matrix(1 0 0 -1 0 30.52)"/></svg>