<svg xmlns="http://www.w3.org/2000/svg" width="32" height="32"><path d="M4 24h18v4H4z" style="fill:#f90;fill-opacity:1;stroke:none;stroke-width:.866023;stroke-linecap:butt;stroke-linejoin:miter;stroke-opacity:1"/><path d="M4 14h18v8H4zM4 4h18v8H4z" style="fill:#f90;fill-opacity:1;stroke:none;stroke-width:1.22474;stroke-linecap:butt;stroke-linejoin:miter;stroke-opacity:1"/><path d="m24.223 5.553-.446.894S27.5 8.333 27.5 12s-3.723 5.553-3.723 5.553l.446.894S28.5 16.333 28.5 12s-4.277-6.447-4.277-6.447z" style="color:#000;fill:#f0f;-inkscape-stroke:none" transform="matrix(1 0 0 -1 0 25.48)"/><path d="m24.645 13.93-1.5 4.498 4.498 1.5.316-.95-3.55-1.183 1.183-3.55z" style="color:#000;fill:#f0f;-inkscape-stroke:none" transform="matrix(1 0 0 -1 0 25.48)"/></svg>