<svg xmlns="http://www.w3.org/2000/svg" width="32" height="32"><g aria-label=".25" style="font-size:20.8991px;line-height:1.25;letter-spacing:0;word-spacing:0;fill:#3f71ff;fill-opacity:1;stroke-width:.979644"><path d="M262.673 126.422h2.153v2.592h-2.153zM268.52 127.279h7.194v1.735h-9.674v-1.735q1.174-1.215 3.194-3.256 2.03-2.05 2.551-2.643.99-1.112 1.378-1.877.398-.776.398-1.52 0-1.215-.857-1.98-.847-.766-2.215-.766-.97 0-2.05.337-1.072.337-2.297 1.02v-2.081q1.245-.5 2.327-.755 1.082-.256 1.98-.256 2.367 0 3.775 1.184 1.409 1.184 1.409 3.164 0 .938-.358 1.785-.347.837-1.275 1.98-.255.296-1.623 1.715-1.367 1.408-3.857 3.949zM277.367 113.778h8.093v1.735h-6.205v3.735q.45-.153.898-.225.45-.081.898-.081 2.551 0 4.041 1.398 1.49 1.398 1.49 3.786 0 2.459-1.53 3.826-1.531 1.357-4.317 1.357-.96 0-1.96-.163-.99-.163-2.05-.49v-2.071q.918.5 1.897.745.98.245 2.072.245 1.765 0 2.796-.929 1.03-.929 1.03-2.52 0-1.592-1.03-2.521-1.03-.929-2.796-.929-.827 0-1.653.184-.816.184-1.674.572z" style="fill:#3f71ff;fill-opacity:1" transform="matrix(.96888 0 0 1.1811 -252.577 -130.382)"/></g><path d="m17.414 14.586-2.828 2.828L19.172 22l-4.586 4.586 2.828 2.828L22 24.83l4.586 4.585 2.828-2.828L24.828 22l4.586-4.586-2.828-2.828L22 19.172z" style="color:#000;fill:#fff;fill-opacity:1;stroke:#ff305f;stroke-opacity:1;-inkscape-stroke:none"/></svg>