<svg xmlns="http://www.w3.org/2000/svg" width="32" height="32"><g aria-label=".5" style="font-size:21.3333px;line-height:1.25;letter-spacing:0;word-spacing:0;fill:#b841ff;fill-opacity:1"><path d="M260.281 147.354h2.198V150h-2.198zM265.41 134.448h8.26v1.77h-6.333v3.813q.458-.156.916-.229.459-.083.917-.083 2.604 0 4.125 1.427 1.52 1.427 1.52 3.864 0 2.51-1.562 3.907-1.562 1.385-4.406 1.385-.979 0-2-.167-1.01-.166-2.094-.5v-2.114q.938.51 1.938.76t2.115.25q1.802 0 2.854-.948t1.052-2.573q0-1.625-1.052-2.572-1.052-.948-2.854-.948-.844 0-1.688.187-.833.188-1.708.583z" style="fill:#b841ff;fill-opacity:1" transform="matrix(1.19502 0 0 1.1544 -307.042 -151.207)"/></g><path d="m17.414 14.586-2.828 2.828L19.172 22l-4.586 4.586 2.828 2.828L22 24.828l4.586 4.586 2.828-2.828L24.828 22l4.586-4.586-2.828-2.828L22 19.172z" style="color:#000;fill:#fff;fill-opacity:1;stroke:#ff305f;stroke-opacity:1;-inkscape-stroke:none"/></svg>