<svg xmlns="http://www.w3.org/2000/svg" width="32" height="32"><path fill="#50a226" d="M23.966 20.114q1.198.235 1.85.95.663.704.663 1.772 0 1.614-1.237 2.487-1.237.872-3.541.872-.742 0-1.563-.143-.807-.13-1.719-.39v-1.576q.678.351 1.446.52.781.17 1.653.17 1.42 0 2.2-.508.782-.52.782-1.432 0-.964-.729-1.459-.716-.495-2.122-.495h-1.12v-1.406h1.224q1.224 0 1.849-.403.638-.417.638-1.198 0-.756-.651-1.146-.651-.404-1.888-.404-.521 0-1.185.117-.664.118-1.719.417v-1.497q.95-.222 1.784-.339.833-.117 1.55-.117 1.874 0 2.968.768 1.107.768 1.107 2.057 0 .899-.586 1.524t-1.654.86z"/><path fill="#3f3f3f" d="M19.943 6.208h2.083L9.891 26.378H7.807zM4.031 15.87h2.657V7.913l-2.904.534v-1.51l2.995-.509h1.784v9.44h2.669v1.433h-7.2Z"/></svg>