<svg xmlns="http://www.w3.org/2000/svg" width="32" height="32" style="font-size:26.6667px;line-height:1.25;letter-spacing:0;word-spacing:0;fill:#fff;fill-opacity:1;stroke:#3f3f3f;stroke-opacity:1"><g stroke="none"><path d="M182.807 147.945q-1.146 0-1.81.677-.664.69-.664 1.875 0 1.172.664 1.85.664.69 1.81.69 1.133 0 1.797-.69.664-.678.664-1.85 0-1.185-.664-1.875-.664-.677-1.797-.677zm3.36-4.61v1.342q-.638-.26-1.29-.39-.65-.144-1.288-.144-1.667 0-2.553.977-.885.99-1.015 2.982.495-.638 1.237-.977.755-.339 1.64-.339 1.888 0 2.982.99 1.094 1.003 1.094 2.721 0 1.654-1.146 2.683-1.133 1.015-3.02 1.015-2.175 0-3.321-1.445-1.146-1.445-1.146-4.206 0-2.578 1.406-4.101 1.407-1.537 3.776-1.537.638 0 1.29.104.65.118 1.354.326z" style="fill:#00e0ad;fill-opacity:1;stroke:none;stroke-opacity:1" transform="translate(-160 -128)"/><path d="M179.943 134.208h2.083l-12.135 20.17h-2.084zM164.031 143.87h2.657v-7.956l-2.904.534v-1.51l2.995-.508h1.784v9.44h2.669v1.432h-7.2z" style="fill:#3f3f3f;fill-opacity:1;stroke:none;stroke-opacity:1" transform="translate(-160 -128)"/></g></svg>