<svg xmlns="http://www.w3.org/2000/svg" width="32" height="32"><path fill="#3f3f3f" d="M19.943 6.208h2.083L9.891 26.378H7.807z"/><path fill="#3086ff" d="M20.633 24.516h5.52V26h-7.786v-1.432c.295-.27.716-.647 1.263-1.133 2.986-2.648 4.48-4.38 4.48-5.195 0-.573-.226-1.033-.678-1.38-.451-.357-1.046-.534-1.784-.534-.45 0-.941.078-1.47.234-.53.147-1.108.373-1.733.677v-1.602a13.98 13.98 0 0 1 1.862-.546 7.93 7.93 0 0 1 1.615-.183c1.259 0 2.266.287 3.02.86.756.573 1.134 1.328 1.134 2.265 0 1.207-1.437 3.043-4.31 5.508-.486.417-.864.742-1.133.977z"/><path fill="#3f3f3f" d="M4.031 15.87h2.657V7.914l-2.904.534v-1.51l2.995-.508h1.784v9.44h2.669v1.432h-7.2z"/></svg>