<svg xmlns="http://www.w3.org/2000/svg" width="32" height="32" style="font-size:26.6667px;line-height:1.25;letter-spacing:0;word-spacing:0;fill:#fff;fill-opacity:1;stroke:#3f3f3f;stroke-opacity:1"><g stroke="none"><path d="M216.5 149.39q-.69-.572-1.901-.572-1.21 0-1.901.573-.69.56-.69 1.536 0 .99.69 1.55t1.901.56q1.198 0 1.901-.573.69-.56.69-1.537 0-.976-.69-1.536zm-3.594-1.21q-1.093-.235-1.692-.873-.612-.65-.612-1.588 0-1.302 1.067-2.058 1.068-.755 2.93-.755t2.93.755q1.054.756 1.054 2.058 0 .963-.599 1.588-.612.638-1.692.873 1.172.234 1.9.99.69.715.69 1.757 0 1.576-1.106 2.422-1.12.846-3.177.846-2.07 0-3.177-.846-1.12-.846-1.12-2.422 0-1.016.69-1.758.703-.729 1.914-.99zm-.625-2.318q0 .82.612 1.315.6.482 1.706.482 1.055 0 1.693-.482.625-.469.625-1.315 0-.82-.625-1.315-.612-.482-1.693-.482-1.08 0-1.706.482-.612.469-.612 1.315z" style="fill:#d567ff;fill-opacity:1;stroke:none;stroke-opacity:1" transform="translate(-192 -128)"/><path d="M211.943 134.208h2.083l-12.135 20.17h-2.084zM196.031 143.87h2.657v-7.956l-2.904.534v-1.51l2.995-.508h1.784v9.44h2.669v1.432h-7.2z" style="fill:#3f3f3f;fill-opacity:1;stroke:none;stroke-opacity:1" transform="translate(-192 -128)"/></g></svg>